<svg width="24" height="24" viewBox="0 0 24 24" fill="none" xmlns="http://www.w3.org/2000/svg">
<g clip-path="url(#clip0)">
<path d="M22.6754 24.0001C23.4068 24.0001 24 23.407 24 22.6755V1.32459C24 0.592969 23.4068 0 22.6754 0H1.32459C0.592875 0 0 0.592969 0 1.32459V22.6755C0 23.407 0.592875 24.0001 1.32459 24.0001H22.6754" fill="#395185"/>
<path d="M16.5595 24V14.7059H19.6792L20.1463 11.0839H16.5595V8.77126C16.5595 7.72257 16.8508 7.00791 18.3547 7.00791L20.2727 7.00707V3.76754C19.9408 3.72338 18.8023 3.62476 17.4778 3.62476C14.7124 3.62476 12.8192 5.31272 12.8192 8.41266V11.0839H9.6915V14.7059H12.8192V24H16.5595" fill="white"/>
</g>
<defs>
<clipPath id="clip0">
<rect width="24" height="24" fill="white"/>
</clipPath>
</defs>
</svg>
